<svg xmlns="http://www.w3.org/2000/svg" viewBox="0 0 22.539 9.5" fill="#382626"><path d="M0.26952 0.46875C0.198039 0.474887 0.129485 0.505319 0.0789406 0.557466C0.0283958 0.609576 0 0.678523 0 0.75C0 0.821477 0.0283958 0.890424 0.0789406 0.942534C0.129485 0.994681 0.198039 1.02511 0.26952 1.03125C0.636187 1.0625 1.00285 1.09219 1.36952 1.12031C4.66952 1.37344 7.96952 1.5 11.2695 1.5C14.5695 1.5 17.8695 1.37344 21.1695 1.12031C21.5362 1.09219 21.9029 1.0625 22.2695 1.03125C22.341 1.02511 22.4096 0.994681 22.4601 0.942534C22.5106 0.890424 22.539 0.821477 22.539 0.75C22.539 0.678523 22.5106 0.609576 22.4601 0.557466C22.4096 0.505319 22.341 0.474887 22.2695 0.46875C21.9029 0.4375 21.5362 0.407813 21.1695 0.379688C17.8695 0.126563 14.5695 0 11.2695 0C7.96952 0 4.66952 0.126562 1.36952 0.379687C1.00285 0.407813 0.636187 0.4375 0.26952 0.46875Z"/><path d="M0.26952 4.46875C0.198039 4.47489 0.129485 4.50532 0.0789406 4.55747C0.0283958 4.60958 0 4.67852 0 4.75C0 4.82148 0.0283958 4.89042 0.0789406 4.94253C0.129485 4.99468 0.198039 5.02511 0.26952 5.03125C0.636187 5.0625 1.00285 5.09219 1.36952 5.12031C4.66952 5.37344 7.96952 5.5 11.2695 5.5C14.5695 5.5 17.8695 5.37344 21.1695 5.12031C21.5362 5.09219 21.9029 5.0625 22.2695 5.03125C22.341 5.02511 22.4096 4.99468 22.4601 4.94253C22.5106 4.89042 22.539 4.82148 22.539 4.75C22.539 4.67852 22.5106 4.60958 22.4601 4.55747C22.4096 4.50532 22.341 4.47489 22.2695 4.46875C21.9029 4.4375 21.5362 4.40781 21.1695 4.37969C17.8695 4.12656 14.5695 4 11.2695 4C7.96952 4 4.66952 4.12656 1.36952 4.37969C1.00285 4.40781 0.636187 4.4375 0.26952 4.46875Z"/><path d="M0.26952 8.46875C0.198039 8.47489 0.129485 8.50532 0.0789406 8.55747C0.0283958 8.60958 0 8.67852 0 8.75C0 8.82148 0.0283958 8.89042 0.0789406 8.94253C0.129485 8.99468 0.198039 9.02511 0.26952 9.03125C0.636187 9.0625 1.00285 9.09219 1.36952 9.12031C4.66952 9.37344 7.96952 9.5 11.2695 9.5C14.5695 9.5 17.8695 9.37344 21.1695 9.12031C21.5362 9.09219 21.9029 9.0625 22.2695 9.03125C22.341 9.02511 22.4096 8.99468 22.4601 8.94253C22.5106 8.89042 22.539 8.82148 22.539 8.75C22.539 8.67852 22.5106 8.60958 22.4601 8.55747C22.4096 8.50532 22.341 8.47489 22.2695 8.46875C21.9029 8.4375 21.5362 8.40781 21.1695 8.37969C17.8695 8.12656 14.5695 8 11.2695 8C7.96952 8 4.66952 8.12656 1.36952 8.37969C1.00285 8.40781 0.636187 8.4375 0.26952 8.46875Z"/></svg>
