<svg preserveAspectRatio="none" width="100%" height="100%" overflow="visible" style="display: block;" viewBox="0 0 702.288 704.351" fill="none" xmlns="http://www.w3.org/2000/svg">
<g id="abcdefghijklmnopqrstuvxyz&#195;&#166;&#195;&#184;&#195;&#165;">
<path id="Vector" d="M378.998 617.644L380.956 703.057L365.909 703.402L365.1 668.108L329.951 704.226L324.53 704.35L354.201 675.553L320.913 618.976L337.84 618.588L364.949 666.341L365.059 666.338L363.951 617.989L378.998 617.644Z" fill="var(--fill-0, #2D2A22)"/>
<path id="Vector_2" d="M506.144 552.604C497.933 562.981 498.838 567.272 505.702 584.192L532.703 650.747L518.756 656.405L493.877 595.08C486.139 576.006 494.502 563.059 505.062 549.937L506.144 552.604Z" fill="var(--fill-0, #2D2A22)"/>
<path id="Vector_3" d="M588.388 475.035L653.521 530.324L643.781 541.799L578.648 486.509L588.388 475.035Z" fill="var(--fill-0, #2D2A22)"/>
<path id="Vector_4" d="M611.714 349.136L656.591 355.83L660.445 329.999L615.568 323.305L617.788 308.418L702.288 321.023L700.068 335.909L663.072 330.391L659.218 356.222L696.214 361.741L693.994 376.627L609.494 364.022L611.714 349.136Z" fill="var(--fill-0, #2D2A22)"/>
<path id="Vector_5" d="M554.736 177.463C548.162 164.79 558.548 147.559 580.065 136.646C604.235 124.357 627.505 128.119 638.003 148.356C641.927 155.92 643.136 164.02 642.966 169.219L624.498 178.8L623.784 177.424C633.993 168.264 639.988 158.671 634.633 148.109C628.926 137.107 615.091 135.432 593.086 146.847C574.225 156.631 562.925 168.976 567.716 178.21C572.098 186.658 585.401 185.866 602.887 176.795L603.869 176.286L597.856 164.694L600.017 163.573L611.636 185.97L570.817 207.021L565.314 196.411L591.052 183.06C573.317 188.768 559.985 187.581 554.736 177.463Z" fill="var(--fill-0, #2D2A22)"/>
<path id="Vector_6" d="M414.953 81.7355L455.886 6.74409L495.81 28.5358L489.235 40.581L488.361 40.1038C486.995 29.9022 483.278 24.4694 474.438 19.6444L467.93 16.092L451.175 46.788L474.1 59.301L472.775 61.7294L449.85 49.2165L428.164 88.9464L414.953 81.7355Z" fill="var(--fill-0, #2D2A22)"/>
<path id="Vector_7" d="M259.075 88.565L252.81 3.3599L298.503 0L299.501 13.5754L298.516 13.7588C291.947 5.91938 286.099 3.35331 276.718 4.04314L267.888 4.69241L270.453 39.5691L298.597 37.4996L298.8 40.2588L270.656 42.3283L273.796 85.0413L281.853 84.4488C291.676 83.7265 299.314 78.9481 303.211 68.5637L304.315 68.4825L305.209 85.1726L259.075 88.565Z" fill="var(--fill-0, #2D2A22)"/>
<path id="Vector_8" d="M125.164 190.27L71.5509 123.751L83.1831 114.376C102.656 98.6808 127.11 98.1597 143.917 119.012C159.82 138.743 157.821 163.95 136.969 180.756L125.164 190.27ZM135.269 178.999C148.899 167.871 147.896 148.638 131.715 128.562C116.853 110.123 99.5004 105.346 84.6415 116.185L135.269 178.999Z" fill="var(--fill-0, #2D2A22)"/>
<path id="Vector_9" d="M83.835 320.505C79.4515 335.826 60.0827 342.371 36.143 335.522C10.9266 328.308 -4.38982 310.228 1.11996 290.97C3.52478 282.564 8.40662 276.364 12.5883 272.61L32.4848 278.303L32.0891 279.686C18.2562 278.951 6.48886 283.067 3.64279 292.612C0.568276 303.358 10.7802 312.726 31.9535 318.784C55.4675 325.511 72.0381 322.31 75.3257 310.819C78.1567 300.924 67.5948 292.377 51.1651 284.223L51.7131 282.308C71.6539 291.466 88.6446 303.694 83.835 320.505Z" fill="var(--fill-0, #2D2A22)"/>
<path id="Vector_10" d="M121.799 496.514L40.6704 523.298L34.7378 505.328C28.25 485.676 32.3379 475.819 41.1654 472.905C49.7826 470.06 58.5879 474.845 65.1928 490.262C61.46 474.013 65.4519 461.041 80.3745 456.114C95.297 451.188 109.621 459.628 115.797 478.334L121.799 496.514ZM114.908 483.056L114.145 480.744C110.225 468.869 98.0881 466.349 85.2673 470.582C73.8126 474.363 63.7121 481.893 68.4651 496.291L69.0896 498.182L114.908 483.056ZM66.9878 498.876L66.3634 496.984C62.894 486.476 55.2406 482.709 45.7827 485.831C36.64 488.85 33.961 495.561 37.0824 505.369L38.0885 508.417L66.9878 498.876Z" fill="var(--fill-0, #2D2A22)"/>
<path id="Vector_11" d="M247.556 600.554L174.645 652.325L170.106 648.787L202.169 565.174L215.261 575.38L200.442 609.151L214.407 620.037L244.239 597.968L247.556 600.554ZM212.231 621.568L199.401 611.566L186.868 640.244L212.231 621.568Z" fill="var(--fill-0, #2D2A22)"/>
</g>
</svg>
